<?xml version="1.0" encoding="utf-8"?>
<!-- Generator: Adobe Illustrator 19.0.0, SVG Export Plug-In . SVG Version: 6.00 Build 0)  -->
<svg version="1.1" id="Layer_1" xmlns="http://www.w3.org/2000/svg" xmlns:xlink="http://www.w3.org/1999/xlink" x="0px" y="0px"
	 viewBox="0 0 25 21" style="enable-background:new 0 0 25 21;" xml:space="preserve">
<style type="text/css">
	.st0{fill:#999999;}
</style>
<path class="st0" d="M17.1,0.2c1.4,0,2.7,0.6,3.6,1.6c1.1-0.2,2.2-0.7,3.1-1.3c-0.4,1.2-1.1,2.2-2.2,2.9c1-0.1,2-0.4,2.8-0.8
	c-0.7,1-1.5,2-2.5,2.7c0,0.2,0,0.4,0,0.7c0,6.9-4.9,14.8-14,14.8c-2.8,0-5.4-0.9-7.5-2.3c0.4,0,0.8,0.1,1.2,0.1
	c2.3,0,4.4-0.8,6.1-2.2c-2.2,0-4-1.5-4.6-3.6c0.3,0.1,0.6,0.1,0.9,0.1c0.4,0,0.9-0.1,1.3-0.2c-2.3-0.5-4-2.6-4-5.1V7.4
	c0.7,0.4,1.4,0.6,2.2,0.6C2.4,7.2,1.5,5.6,1.5,3.8c0-0.9,0.3-1.8,0.7-2.6c2.4,3.1,6.1,5.2,10.2,5.4c-0.1-0.4-0.1-0.8-0.1-1.2
	C12.2,2.5,14.4,0.2,17.1,0.2z"/>
</svg>
