<?xml version="1.0" encoding="utf-8"?>
<!-- Generator: Adobe Illustrator 19.0.0, SVG Export Plug-In . SVG Version: 6.00 Build 0)  -->
<svg version="1.1" id="Layer_1" xmlns="http://www.w3.org/2000/svg" xmlns:xlink="http://www.w3.org/1999/xlink" x="0px" y="0px"
	 viewBox="0 0 32 25.5" style="enable-background:new 0 0 32 25.5;" xml:space="preserve">
<style type="text/css">
	.st0{fill:#FFFFFF;}
	.st1{fill:#999999;}
</style>
<g>
	<g>
		<path id="XMLID_73_" class="st0" d="M3.1,17.4c0,3.5,4.6,6.4,10.3,6.4c5.7,0,10.3-2.9,10.3-6.4c0-3.5-4.6-6.4-10.3-6.4
			C7.7,11,3.1,13.8,3.1,17.4"/>
		<path class="st1" d="M23.6,12.3c-0.4-0.1-0.7-0.2-0.5-0.8c0.5-1.2,0.5-2.3,0-3c-1-1.4-3.7-1.3-6.8,0c0,0-1,0.4-0.7-0.3
			c0.5-1.5,0.4-2.8-0.3-3.5c-1.7-1.7-6.1,0.1-10,3.9c-2.9,2.9-4.5,5.9-4.5,8.5c0,5,6.4,8.1,12.7,8.1c8.3,0,13.7-4.8,13.7-8.6
			C27.3,14.1,25.4,12.8,23.6,12.3z M13.6,23.2c-5,0.5-9.4-1.8-9.7-5.1c-0.3-3.3,3.5-6.4,8.5-6.9c5-0.5,9.4,1.8,9.7,5.1
			C22.4,19.7,18.6,22.7,13.6,23.2z"/>
		<path id="XMLID_70_" class="st1" d="M29.1,3.1c-2-2.2-4.9-3.1-7.6-2.5h0c-0.6,0.1-1,0.8-0.9,1.4c0.1,0.6,0.8,1,1.4,0.9
			c1.9-0.4,4,0.2,5.4,1.8c1.4,1.6,1.8,3.7,1.2,5.6l0,0c-0.2,0.6,0.1,1.3,0.7,1.5c0.6,0.2,1.3-0.1,1.5-0.7c0,0,0,0,0,0
			C31.6,8.3,31.1,5.3,29.1,3.1"/>
		<path id="XMLID_69_" class="st1" d="M26,5.9c-1-1.1-2.4-1.5-3.7-1.2c-0.5,0.1-0.9,0.6-0.8,1.2c0.1,0.5,0.6,0.9,1.2,0.8v0
			c0.6-0.1,1.3,0.1,1.8,0.6C25,7.7,25.2,8.5,25,9.1h0c-0.2,0.5,0.1,1.1,0.6,1.3c0.5,0.2,1.1-0.1,1.3-0.6C27.3,8.4,27,6.9,26,5.9"/>
		<g>
			<path class="st1" d="M14.1,13.8c-2.4-0.6-5.1,0.6-6.1,2.7c-1.1,2.1,0,4.5,2.4,5.3c2.5,0.8,5.5-0.4,6.5-2.7
				C17.8,16.8,16.6,14.5,14.1,13.8z M12.3,19.3c-0.5,0.8-1.5,1.1-2.3,0.8c-0.8-0.4-1-1.3-0.5-2c0.5-0.8,1.5-1.1,2.3-0.8
				C12.5,17.6,12.7,18.5,12.3,19.3z M13.9,17.3c-0.2,0.3-0.6,0.4-0.9,0.3c-0.3-0.1-0.4-0.5-0.2-0.8c0.2-0.3,0.5-0.4,0.8-0.3
				C13.9,16.6,14,17,13.9,17.3z"/>
		</g>
	</g>
</g>
</svg>
