<?xml version="1.0" encoding="utf-8"?>
<!-- Generator: Adobe Illustrator 19.0.0, SVG Export Plug-In . SVG Version: 6.00 Build 0)  -->
<svg version="1.1" id="Layer_1" xmlns="http://www.w3.org/2000/svg" xmlns:xlink="http://www.w3.org/1999/xlink" x="0px" y="0px"
	 viewBox="0 0 26 31.5" style="enable-background:new 0 0 26 31.5;" xml:space="preserve">
<style type="text/css">
	.st0{opacity:0.3;fill-rule:evenodd;clip-rule:evenodd;fill:#999999;}
	.st1{fill-rule:evenodd;clip-rule:evenodd;fill:#999999;}
	.st2{fill:#999999;}
</style>
<g>
	<g>
		<path class="st0" d="M10.4,0.8H8.7L7.5,5.3L6.3,0.8H4.5c0.4,1,0.7,2.1,1.1,3.2c0.5,1.6,0.9,2.8,1,3.6v4.6h1.7V7.5L10.4,0.8z
			 M14.9,9.4v-3c0-0.9-0.2-1.6-0.5-2c-0.4-0.6-1-0.9-1.8-0.9c-0.8,0-1.4,0.3-1.8,0.9c-0.3,0.4-0.5,1.1-0.5,2v3c0,0.9,0.2,1.6,0.5,2
			c0.4,0.6,1,0.9,1.8,0.9c0.8,0,1.4-0.3,1.8-0.9C14.7,10.9,14.9,10.3,14.9,9.4z M13.4,9.7c0,0.8-0.2,1.2-0.7,1.2
			c-0.5,0-0.7-0.4-0.7-1.2V6.1c0-0.8,0.2-1.2,0.7-1.2c0.5,0,0.7,0.4,0.7,1.2V9.7z M20.5,12.1V3.7H19v6.4c-0.3,0.5-0.7,0.7-1,0.7
			c-0.2,0-0.3-0.1-0.4-0.4c0-0.1,0-0.2,0-0.6V3.7h-1.5v6.7c0,0.6,0.1,1,0.1,1.3c0.2,0.4,0.5,0.6,1,0.6c0.6,0,1.1-0.3,1.7-1v0.9H20.5
			z"/>
		<path class="st1" d="M10.4,0.6H8.7L7.5,5.1L6.3,0.6H4.5c0.4,1,0.7,2.1,1.1,3.2c0.5,1.6,0.9,2.8,1,3.6v4.6h1.7V7.4L10.4,0.6z
			 M14.9,9.2v-3c0-0.9-0.2-1.6-0.5-2c-0.4-0.6-1-0.9-1.8-0.9c-0.8,0-1.4,0.3-1.8,0.9c-0.3,0.4-0.5,1.1-0.5,2v3c0,0.9,0.2,1.6,0.5,2
			c0.4,0.6,1,0.9,1.8,0.9c0.8,0,1.4-0.3,1.8-0.9C14.8,10.8,14.9,10.1,14.9,9.2z M13.4,9.5c0,0.8-0.2,1.2-0.7,1.2
			c-0.5,0-0.7-0.4-0.7-1.2V5.9c0-0.8,0.2-1.2,0.7-1.2c0.5,0,0.7,0.4,0.7,1.2V9.5z M20.6,11.9V3.5H19v6.4c-0.3,0.5-0.7,0.7-1,0.7
			c-0.2,0-0.3-0.1-0.4-0.4c0,0,0-0.2,0-0.6V3.5h-1.5v6.7c0,0.6,0.1,1,0.1,1.3c0.2,0.4,0.5,0.6,1,0.6c0.6,0,1.1-0.3,1.7-1v0.9H20.6z"
			/>
	</g>
	<g>
		<path class="st2" d="M21.4,20.5c-0.5,0-0.8,0.4-0.8,1.2v0.8h1.5v-0.8C22.1,20.9,21.9,20.5,21.4,20.5z"/>
		<path class="st2" d="M15.8,20.5c-0.2,0-0.5,0.1-0.8,0.4v5.1c0.3,0.3,0.5,0.4,0.8,0.4c0.4,0,0.7-0.4,0.7-1.1v-3.6
			C16.4,20.9,16.2,20.5,15.8,20.5z"/>
		<path class="st2" d="M25.1,16.3c-0.3-1.3-1.4-2.3-2.7-2.5c-3.1-0.3-6.2-0.3-9.4-0.3c-3.1,0-6.3,0-9.4,0.3
			c-1.3,0.1-2.4,1.1-2.7,2.5c-0.4,1.9-0.4,4-0.4,5.9c0,1.9,0,4,0.4,5.9c0.3,1.3,1.4,2.3,2.7,2.5c3.1,0.3,6.2,0.3,9.4,0.3
			c3.1,0,6.3,0,9.4-0.3c1.3-0.1,2.4-1.1,2.7-2.5c0.4-1.9,0.4-4,0.4-5.9C25.5,20.2,25.5,18.1,25.1,16.3z M7.6,18H5.8v9.6H4.1V18H2.4
			v-1.6h5.3V18z M12.2,27.6h-1.5v-0.9c-0.6,0.7-1.2,1-1.7,1c-0.5,0-0.8-0.2-1-0.6c-0.1-0.3-0.1-0.6-0.1-1.2v-6.6h1.5v6.1
			c0,0.4,0,0.5,0,0.6c0,0.2,0.2,0.4,0.4,0.4c0.3,0,0.6-0.2,1-0.7v-6.4h1.5V27.6z M17.9,25.1c0,0.8-0.1,1.3-0.2,1.7
			c-0.2,0.6-0.6,0.9-1.2,0.9c-0.5,0-1.1-0.3-1.6-0.9v0.8h-1.5V16.4H15V20c0.5-0.6,1-0.9,1.6-0.9c0.6,0,1,0.3,1.2,0.9
			c0.1,0.3,0.2,0.9,0.2,1.7V25.1z M23.6,23.7h-3v1.5c0,0.8,0.3,1.2,0.8,1.2c0.4,0,0.6-0.2,0.7-0.6c0-0.1,0-0.4,0-1h1.5v0.2
			c0,0.5,0,0.8,0,1c-0.1,0.3-0.2,0.6-0.4,0.9c-0.4,0.6-1,0.9-1.8,0.9c-0.8,0-1.4-0.3-1.8-0.9c-0.3-0.4-0.5-1.1-0.5-2v-2.9
			c0-0.9,0.1-1.5,0.5-2c0.4-0.6,1-0.9,1.8-0.9c0.8,0,1.4,0.3,1.8,0.9c0.3,0.4,0.5,1.1,0.5,2V23.7z"/>
	</g>
</g>
</svg>
